<?xml version="1.0" encoding="UTF-8"?>
<svg id="Capa_1" data-name="Capa 1" xmlns="http://www.w3.org/2000/svg" viewBox="0 0 60.99 72.43">
  <defs>
    <style>
      .cls-1 {
        fill: #e5e5e9;
      }
    </style>
  </defs>
  <path class="cls-1" d="M34.5,2.84c5.75,13.95,11.49,27.91,17.24,41.86,2.71,6.57,5.46,13.13,8.15,19.71,.95,2.33,2.01,4.76-.31,6.91-2.18,2.03-4.4,.85-6.59-.13-6.04-2.68-12.18-5.17-18.12-8.07-3.28-1.6-6.06-1.29-9.21,.21-6.19,2.95-12.54,5.58-18.79,8.39-1.98,.89-3.8,1.14-5.54-.45-1.8-1.65-1.49-3.54-.69-5.5C9.14,44.99,17.64,24.2,26.15,3.41,26.89,1.61,27.81,.02,30.11,0c2.09-.01,3.57,.91,4.39,2.84Z"/>
</svg>