<?xml version="1.0" encoding="UTF-8"?>
<svg id="Capa_1" data-name="Capa 1" xmlns="http://www.w3.org/2000/svg" viewBox="0 0 38.24 64.78">
  <defs>
    <style>
      .cls-1 {
        fill: #5f6374;
      }
    </style>
  </defs>
  <path class="cls-1" d="M4.77,0c2.88-.09,4.33,.81,5.6,2.09,8.55,8.55,17.14,17.06,25.62,25.68,3.04,3.1,2.98,6.09-.08,9.18-8.41,8.52-16.88,16.97-25.37,25.4-2.92,2.9-6.11,3.16-8.62,.89-2.59-2.34-2.62-5.95,.28-8.94,6.25-6.44,12.55-12.84,19.05-19.03,2.45-2.33,2.26-3.73-.06-5.96C14.72,23.12,8.46,16.69,2.13,10.31,.23,8.4-.61,6.13,.5,3.5,1.46,1.22,3.3,.09,4.77,0Z"/>
</svg>