<?xml version="1.0" encoding="UTF-8"?>
<svg id="Capa_1" data-name="Capa 1" xmlns="http://www.w3.org/2000/svg" viewBox="0 0 131.61 131.44">
  <defs>
    <style>
      .cls-1 {
        fill: #E7E7EB;
      }
    </style>
  </defs>
  <path class="cls-1" d="M131.61,65.74c.1,3.7-2.62,6.6-6.72,6.34-4.07-.25-5.5,1-6.54,5.19-5.66,22.66-19.8,36.9-43.07,41.39-2.1,.41-2.9,1.31-2.98,3.46-.26,6.63-2.34,9.41-6.67,9.31-4.2-.09-6.18-2.8-6.37-9.23-.07-2.37-1.03-3.19-3.28-3.57-22.02-3.71-39.71-21.46-43.23-43.5-.41-2.54-1.47-2.97-3.65-2.99C2.87,72.07-.01,69.99,0,65.83c.01-4.19,2.65-6.05,9.17-6.14,2.32-.03,3.19-.77,3.57-3.15,3.34-21.01,20.2-38.86,41.04-43.22,3.81-.8,5.91-1.66,5.6-6.21C59.08,2.82,62.3-.1,65.94,0c3.66,.1,6.58,3.03,6.26,7.4-.31,4.17,1.55,5.13,5.12,5.83,20.6,4.07,37.87,21.72,41.36,42.44,.61,3.61,2.15,4.1,5.17,4.01,4.99-.14,7.65,2.09,7.76,6.05ZM66.15,24.73c-21.4-.27-41.31,16.07-41.53,40.79-.22,24.32,18.66,40.23,38.6,41.39,23.28,1.36,43.05-16.1,43.81-40,.74-23.18-17.68-41.87-40.88-42.19Z"/>
  <path class="cls-1" d="M41.86,65.65c0-13.56,10.37-23.96,23.87-23.97,13.47,0,24.24,10.7,24.34,24.19,.09,13.15-11.11,24.44-24.36,24.27-15.6-.2-25.02-13.81-23.84-24.49Z"/>
</svg>